<svg width="525" height="80" id="canvas">
<g id="out" stroke-width="1" stroke="black" fill="none" transform="scale(2)"><g transform="translate(0,4)"><g transform="translate(2,0)"><g><g class="cbody"><line x1="5" y1="30" x2="10" y2="22"></line><line x1="15" y1="30" x2="10" y2="22"></line><line x1="10" y1="22" x2="10" y2="15"></line><circle cx="10" cy="10" r="5"></circle></g><polygon fill="black" points="3,6 17,6 14,6 14,2 6,2 6,6"></polygon><g class="carms" transform="scale(-1,1) translate(-20)"><line x1="10" y1="18" x2="5" y2="14"></line><line x1="10" y1="18" x2="5" y2="22"></line></g><g></g></g></g><g transform="translate(28.5,0)"><g><circle cx="5" cy="22" r="5"></circle><polygon points="1.5,25.5 1.5,18.5 -4.5,22" fill="black"></polygon><path d="M10,22 h 9 m -6,-5 v 10"></path><path d="M19,22 l 6,6 m -6,-6 l 6,-6"></path><line x1="15" y1="22" x2="16" y2="13"></line><line x1="13.5" y1="15" x2="18" y2="16"></line></g></g><g transform="translate(55.5,0)"><g><g class="cbody"><line x1="5" y1="30" x2="10" y2="22"></line><line x1="15" y1="30" x2="10" y2="22"></line><line x1="10" y1="22" x2="10" y2="15"></line><circle cx="10" cy="10" r="5"></circle></g><polygon fill="black" points="3,6 17,6 14,6 14,2 6,2 6,6"></polygon><g class="carms" transform="scale(-1,1) translate(-20)"><line x1="10" y1="18" x2="5" y2="14"></line><line x1="10" y1="18" x2="5" y2="22"></line></g><g><polygon points="6.5,14 13.5,14 10,18" fill="black"></polygon></g></g></g><g transform="translate(72.5,0)"><g><g class="cbody"><line x1="5" y1="30" x2="10" y2="22"></line><line x1="15" y1="30" x2="10" y2="22"></line><line x1="10" y1="22" x2="10" y2="15"></line><circle cx="10" cy="10" r="5"></circle></g><path d="M12,6 C14,4 14,4 13,1 M8,6 C6,4 6,4 7,1"></path><g class="carms" transform="scale(-1,1) translate(-20)"><line x1="5" y1="18" x2="15" y2="18"></line><line x1="5" y1="30" x2="5" y2="14"></line></g><g></g></g></g><g transform="translate(91.5,30)"><g transform="rotate(-90)"><g><g class="cbody"><line x1="5" y1="30" x2="10" y2="22"></line><line x1="15" y1="30" x2="10" y2="22"></line><line x1="10" y1="22" x2="10" y2="15"></line><circle cx="10" cy="10" r="5"></circle></g><path d="M12,6 C14,4 14,4 13,1 M8,6 C6,4 6,4 7,1"></path><g class="carms" transform="scale(-1,1) translate(-20)"><line x1="10" y1="18" x2="5" y2="14"></line><line x1="10" y1="18" x2="5" y2="22"></line></g><g><ellipse cx="10" cy="18" rx="2" ry="3" fill="white"></ellipse></g></g></g></g><g transform="translate(121.5,0)"><g><g class="cbody"><line x1="5" y1="30" x2="10" y2="22"></line><line x1="15" y1="30" x2="10" y2="22"></line><line x1="10" y1="22" x2="10" y2="15"></line><circle cx="10" cy="10" r="5"></circle></g><g class="carms"><line x1="10" y1="18" x2="5" y2="14"></line><line x1="10" y1="18" x2="5" y2="22"></line></g><g></g></g></g><g transform="translate(170.5,0)"><g transform="rotate(90)"><g><g transform="translate(5 0)"><circle cx="5" cy="22" r="5"></circle><polygon fill="black" points="2,29 2,15 2,18 -2,18 -2,26 2,26"></polygon><path d="M10,22 h 9 m -6,-5 v 10"></path><path d="M19,22 l 6,6 m -6,-6 l 6,-6"></path><path d="M17,22 l3,-7 l-2,-3 m2,3 l-0.5,-3 m0.5,3 l1,-3 m-1,3 l2,-2.5 m-2,2.5 l3,-2"></path></g></g></g></g><g transform="translate(163.5,0)"><g><circle cx="5" cy="22" r="5"></circle><path d="M10,22 h 9 m -6,-5 v 10"></path><path d="M19,22 l 6,6 m -6,-6 l 6,-6"></path><line x1="15" y1="22" x2="16" y2="13"></line><line x1="13.5" y1="15" x2="18" y2="16"></line></g></g><g transform="translate(190.5,0)"><g><g class="cbody"><line x1="5" y1="30" x2="10" y2="22"></line><line x1="15" y1="30" x2="10" y2="22"></line><line x1="10" y1="22" x2="10" y2="15"></line><circle cx="10" cy="10" r="5"></circle></g><polygon fill="black" points="3,6 17,6 14,6 14,2 6,2 6,6"></polygon><g class="carms" transform="scale(-1,1) translate(-20)"><line x1="10" y1="18" x2="5" y2="14"></line><line x1="10" y1="18" x2="5" y2="22"></line></g><g><polygon points="6.5,14 13.5,14 10,18" fill="black"></polygon></g></g></g><g transform="translate(207.5,0)"><g><g class="cbody"><line x1="5" y1="30" x2="10" y2="22"></line><line x1="15" y1="30" x2="10" y2="22"></line><line x1="10" y1="22" x2="10" y2="15"></line><circle cx="10" cy="10" r="5"></circle></g><g class="carms"><line x1="10" y1="18" x2="5" y2="14"></line><line x1="10" y1="18" x2="5" y2="22"></line></g><g></g></g></g><g transform="translate(225.5,30)"><g transform="rotate(-90)"><g><g class="cbody"><line x1="5" y1="30" x2="10" y2="22"></line><line x1="15" y1="30" x2="10" y2="22"></line><line x1="10" y1="22" x2="10" y2="15"></line><circle cx="10" cy="10" r="5"></circle></g><polygon fill="black" points="3,6 17,6 14,6 14,2 6,2 6,6"></polygon><g class="carms" transform="scale(-1,1) translate(-20)"><line x1="10" y1="18" x2="5" y2="14"></line><line x1="10" y1="18" x2="5" y2="22"></line></g><g><polygon points="6.5,14 13.5,14 10,18" fill="black"></polygon></g></g></g></g></g></g></svg>
